<svg xmlns="http://www.w3.org/2000/svg" width="30" height="28" viewBox="0 0 30 28" fill="none">
    <g clip-path="url(#clip0)">
        <path
            d="M28.6958 0.943138C28.5645 0.805389 28.3963 0.70801 28.2113 0.662503C28.0262 0.616997 27.832 0.625262 27.6515 0.686323L0.686047 9.70604C0.509275 9.76453 0.352311 9.87093 0.232723 10.0133C0.113135 10.1557 0.0356423 10.3285 0.00891894 10.5124C-0.0178044 10.6962 0.00729589 10.8839 0.0814105 11.0543C0.155525 11.2247 0.275729 11.3712 0.428568 11.4773L10.179 18.2961L17.5304 27.4167C17.6243 27.5336 17.7433 27.6279 17.8787 27.6927C18.014 27.7576 18.1623 27.7912 18.3125 27.7911C18.3648 27.7907 18.4171 27.7866 18.4689 27.7791C18.6442 27.7512 18.809 27.6774 18.9464 27.5652C19.0838 27.4531 19.1889 27.3065 19.2509 27.1406L28.91 1.9944C28.978 1.81696 28.994 1.62389 28.956 1.43773C28.9181 1.25158 28.8279 1.08003 28.6958 0.943138V0.943138ZM17.8769 24.0013L12.0536 16.8008C11.9106 16.617 11.7411 16.4552 11.5507 16.3208L4.09101 11.1005L25.6061 3.90011L17.8769 24.0013Z"
            fill="white" />
        <path
            d="M19.3327 9.77813C19.3113 9.75581 19.2855 9.73811 19.257 9.72614C19.2284 9.71416 19.1977 9.70817 19.1667 9.70853C19.1428 9.70393 19.1183 9.70393 19.0945 9.70853L12.9247 11.7822C12.8868 11.7985 12.8537 11.8243 12.8287 11.8569C12.8037 11.8896 12.7875 11.9282 12.7817 11.9689C12.7759 12.0096 12.7807 12.0511 12.7956 12.0895C12.8105 12.1278 12.8351 12.1617 12.8669 12.1879L15.0976 13.748L16.782 15.8313C16.8031 15.8583 16.8301 15.8802 16.8609 15.8952C16.8918 15.9102 16.9257 15.9179 16.9601 15.9177H16.9962C17.0361 15.9119 17.0738 15.8955 17.1051 15.8701C17.1364 15.8448 17.1603 15.8115 17.1742 15.7737L19.3833 10.0133C19.3982 9.97342 19.4014 9.93005 19.3925 9.88837C19.3835 9.84668 19.3628 9.80843 19.3327 9.77813V9.77813Z"
            fill="white" />
    </g>
    <defs>
        <clipPath id="clip0">
            <rect width="30" height="28" fill="white" />
        </clipPath>
    </defs>
</svg>